<mxfile host="app.diagrams.net" modified="2023-09-12T03:05:36.781Z" agent="Mozilla/5.0 (Macintosh; Intel Mac OS X 10.15; rv:109.0) Gecko/20100101 Firefox/117.0" etag="5Dp6jXXNALB0wKVygcdC" version="21.7.4" type="device">
  <diagram name="PÃ¡gina-1" id="14kl9gs77ZuZCzUSdgL8">
    <mxGraphModel dx="1165" dy="744" grid="1" gridSize="10" guides="1" tooltips="1" connect="1" arrows="1" fold="1" page="1" pageScale="1" pageWidth="827" pageHeight="1169" math="0" shadow="0">
      <root>
        <mxCell id="0" />
        <mxCell id="1" parent="0" />
        <mxCell id="hlvQ_mnLpGh9b6kKTK5w-20" value="" style="rounded=0;whiteSpace=wrap;html=1;fillColor=none;strokeWidth=4;" vertex="1" parent="1">
          <mxGeometry x="765" y="620" width="180" height="140" as="geometry" />
        </mxCell>
        <mxCell id="hlvQ_mnLpGh9b6kKTK5w-9" value="" style="rounded=0;whiteSpace=wrap;html=1;fillColor=none;strokeWidth=4;" vertex="1" parent="1">
          <mxGeometry x="300" y="450" width="320" height="230" as="geometry" />
        </mxCell>
        <mxCell id="hlvQ_mnLpGh9b6kKTK5w-26" style="edgeStyle=orthogonalEdgeStyle;rounded=0;orthogonalLoop=1;jettySize=auto;html=1;exitX=0.5;exitY=1;exitDx=0;exitDy=0;shape=link;" edge="1" parent="1" source="hlvQ_mnLpGh9b6kKTK5w-10" target="hlvQ_mnLpGh9b6kKTK5w-20">
          <mxGeometry relative="1" as="geometry" />
        </mxCell>
        <mxCell id="hlvQ_mnLpGh9b6kKTK5w-10" value="" style="rounded=0;whiteSpace=wrap;html=1;fillColor=none;strokeWidth=4;" vertex="1" parent="1">
          <mxGeometry x="695" y="240" width="320" height="250" as="geometry" />
        </mxCell>
        <mxCell id="hlvQ_mnLpGh9b6kKTK5w-15" value="" style="edgeStyle=orthogonalEdgeStyle;rounded=0;orthogonalLoop=1;jettySize=auto;html=1;shape=link;" edge="1" parent="1" target="hlvQ_mnLpGh9b6kKTK5w-9">
          <mxGeometry relative="1" as="geometry">
            <mxPoint x="460" y="340" as="sourcePoint" />
          </mxGeometry>
        </mxCell>
        <mxCell id="hlvQ_mnLpGh9b6kKTK5w-24" style="edgeStyle=orthogonalEdgeStyle;rounded=0;orthogonalLoop=1;jettySize=auto;html=1;shape=link;" edge="1" parent="1" source="hlvQ_mnLpGh9b6kKTK5w-1">
          <mxGeometry relative="1" as="geometry">
            <mxPoint x="690" y="305" as="targetPoint" />
          </mxGeometry>
        </mxCell>
        <mxCell id="hlvQ_mnLpGh9b6kKTK5w-1" value="WebServer" style="fontColor=#0066CC;verticalAlign=bottom;verticalLabelPosition=top;labelPosition=center;align=center;html=1;outlineConnect=0;fillColor=#CCCCCC;strokeColor=#6881B3;gradientColor=none;gradientDirection=north;strokeWidth=2;shape=mxgraph.networks.pc;horizontal=1;" vertex="1" parent="1">
          <mxGeometry x="410" y="270" width="100" height="70" as="geometry" />
        </mxCell>
        <mxCell id="hlvQ_mnLpGh9b6kKTK5w-11" style="edgeStyle=orthogonalEdgeStyle;rounded=0;orthogonalLoop=1;jettySize=auto;html=1;entryX=0;entryY=0.5;entryDx=0;entryDy=0;entryPerimeter=0;shape=link;" edge="1" parent="1" source="hlvQ_mnLpGh9b6kKTK5w-2" target="hlvQ_mnLpGh9b6kKTK5w-1">
          <mxGeometry relative="1" as="geometry">
            <mxPoint x="210" y="305" as="targetPoint" />
          </mxGeometry>
        </mxCell>
        <mxCell id="hlvQ_mnLpGh9b6kKTK5w-2" value="&lt;div&gt;Jerry-PC&lt;/div&gt;" style="fontColor=#0066CC;verticalAlign=bottom;verticalLabelPosition=top;labelPosition=center;align=center;html=1;outlineConnect=0;fillColor=#CCCCCC;strokeColor=#6881B3;gradientColor=none;gradientDirection=north;strokeWidth=2;shape=mxgraph.networks.pc;" vertex="1" parent="1">
          <mxGeometry x="80" y="270" width="100" height="70" as="geometry" />
        </mxCell>
        <mxCell id="hlvQ_mnLpGh9b6kKTK5w-3" value="&lt;div&gt;Summer-PC&lt;/div&gt;" style="fontColor=#0066CC;verticalAlign=top;verticalLabelPosition=bottom;labelPosition=center;align=center;html=1;outlineConnect=0;fillColor=#CCCCCC;strokeColor=#6881B3;gradientColor=none;gradientDirection=north;strokeWidth=2;shape=mxgraph.networks.pc;" vertex="1" parent="1">
          <mxGeometry x="335" y="470" width="100" height="70" as="geometry" />
        </mxCell>
        <mxCell id="hlvQ_mnLpGh9b6kKTK5w-4" value="Beth-PC" style="fontColor=#0066CC;verticalAlign=top;verticalLabelPosition=bottom;labelPosition=center;align=center;html=1;outlineConnect=0;fillColor=#CCCCCC;strokeColor=#6881B3;gradientColor=none;gradientDirection=north;strokeWidth=2;shape=mxgraph.networks.pc;" vertex="1" parent="1">
          <mxGeometry x="490" y="470" width="100" height="70" as="geometry" />
        </mxCell>
        <mxCell id="hlvQ_mnLpGh9b6kKTK5w-5" value="&lt;div&gt;SpaceBeth-PC&lt;/div&gt;" style="fontColor=#0066CC;verticalAlign=top;verticalLabelPosition=bottom;labelPosition=center;align=center;html=1;outlineConnect=0;fillColor=#CCCCCC;strokeColor=#6881B3;gradientColor=none;gradientDirection=north;strokeWidth=2;shape=mxgraph.networks.pc;" vertex="1" parent="1">
          <mxGeometry x="410" y="585" width="100" height="70" as="geometry" />
        </mxCell>
        <mxCell id="hlvQ_mnLpGh9b6kKTK5w-6" value="&lt;div&gt;Morty-PC&lt;/div&gt;" style="fontColor=#0066CC;verticalAlign=bottom;verticalLabelPosition=top;labelPosition=center;align=center;html=1;outlineConnect=0;fillColor=#CCCCCC;strokeColor=#6881B3;gradientColor=none;gradientDirection=north;strokeWidth=2;shape=mxgraph.networks.pc;" vertex="1" parent="1">
          <mxGeometry x="880" y="390" width="100" height="70" as="geometry" />
        </mxCell>
        <mxCell id="hlvQ_mnLpGh9b6kKTK5w-7" value="Server51" style="fontColor=#0066CC;verticalAlign=bottom;verticalLabelPosition=top;labelPosition=center;align=center;html=1;outlineConnect=0;fillColor=#CCCCCC;strokeColor=#6881B3;gradientColor=none;gradientDirection=north;strokeWidth=2;shape=mxgraph.networks.pc;" vertex="1" parent="1">
          <mxGeometry x="805" y="270" width="100" height="70" as="geometry" />
        </mxCell>
        <mxCell id="hlvQ_mnLpGh9b6kKTK5w-8" value="&lt;div&gt;Birdperson-PC&lt;/div&gt;" style="fontColor=#0066CC;verticalAlign=bottom;verticalLabelPosition=top;labelPosition=center;align=center;html=1;outlineConnect=0;fillColor=#CCCCCC;strokeColor=#6881B3;gradientColor=none;gradientDirection=north;strokeWidth=2;shape=mxgraph.networks.pc;" vertex="1" parent="1">
          <mxGeometry x="730" y="390" width="100" height="70" as="geometry" />
        </mxCell>
        <mxCell id="hlvQ_mnLpGh9b6kKTK5w-17" value="&lt;div&gt;Rick-PC&lt;/div&gt;" style="fontColor=#0066CC;verticalAlign=top;verticalLabelPosition=bottom;labelPosition=center;align=center;html=1;outlineConnect=0;fillColor=#CCCCCC;strokeColor=#6881B3;gradientColor=none;gradientDirection=north;strokeWidth=2;shape=mxgraph.networks.pc;" vertex="1" parent="1">
          <mxGeometry x="805" y="655" width="100" height="70" as="geometry" />
        </mxCell>
      </root>
    </mxGraphModel>
  </diagram>
</mxfile>
